<?xml version="1.0" encoding="UTF-8" standalone="no"?>
<!-- Created with Inkscape (http://www.inkscape.org/) -->

<svg
   width="1920"
   height="1080"
   viewBox="0 0 1920.0001 1080"
   version="1.1"
   id="svg5"
   xml:space="preserve"
   inkscape:version="1.2.2 (732a01da63, 2022-12-09)"
   sodipodi:docname="Miepss.svg"
   xmlns:inkscape="http://www.inkscape.org/namespaces/inkscape"
   xmlns:sodipodi="http://sodipodi.sourceforge.net/DTD/sodipodi-0.dtd"
   xmlns:xlink="http://www.w3.org/1999/xlink"
   xmlns="http://www.w3.org/2000/svg"
   xmlns:svg="http://www.w3.org/2000/svg"><sodipodi:namedview
     id="namedview7"
     pagecolor="#505050"
     bordercolor="#eeeeee"
     borderopacity="1"
     inkscape:showpageshadow="0"
     inkscape:pageopacity="0"
     inkscape:pagecheckerboard="0"
     inkscape:deskcolor="#505050"
     inkscape:document-units="px"
     showgrid="false"
     inkscape:zoom="0.70710678"
     inkscape:cx="-673.16565"
     inkscape:cy="-391.73716"
     inkscape:window-width="1920"
     inkscape:window-height="1009"
     inkscape:window-x="1912"
     inkscape:window-y="-4"
     inkscape:window-maximized="1"
     inkscape:current-layer="layer1"
     showguides="true"
     shape-rendering="crispEdges"><sodipodi:guide
       position="1920,540.00001"
       orientation="0,1"
       id="guide19028"
       inkscape:locked="false"
       inkscape:label=""
       inkscape:color="rgb(0,134,229)" /><sodipodi:guide
       position="960.00002,1080"
       orientation="-1,0"
       id="guide4003"
       inkscape:locked="false"
       inkscape:label=""
       inkscape:color="rgb(0,134,229)" /><sodipodi:guide
       position="400.00001,1080"
       orientation="-1,0"
       id="guide4783"
       inkscape:locked="false"
       inkscape:label=""
       inkscape:color="rgb(0,134,229)" /><sodipodi:guide
       position="1520,540"
       orientation="-1,0"
       id="guide5513"
       inkscape:locked="false"
       inkscape:label=""
       inkscape:color="rgb(0,134,229)" /><sodipodi:guide
       position="-600.14213,1438.9857"
       orientation="0,-1"
       id="guide510"
       inkscape:locked="false" /><sodipodi:guide
       position="-359.01732,1438.986"
       orientation="1,0"
       id="guide512"
       inkscape:locked="false" /></sodipodi:namedview><defs
     id="defs2"><linearGradient
       inkscape:collect="always"
       id="linearGradient9601"><stop
         style="stop-color:#000000;stop-opacity:0.40484428;"
         offset="0"
         id="stop9597" /><stop
         style="stop-color:#000000;stop-opacity:0.52941179;"
         offset="0.22902498"
         id="stop11063" /><stop
         style="stop-color:#000000;stop-opacity:0.25605536;"
         offset="0.64852613"
         id="stop11065" /><stop
         style="stop-color:#000000;stop-opacity:0.1254902;"
         offset="0.78684807"
         id="stop11067" /><stop
         style="stop-color:#000000;stop-opacity:0;"
         offset="1"
         id="stop9599" /></linearGradient><linearGradient
       inkscape:collect="always"
       id="linearGradient1022"><stop
         style="stop-color:#1a1a1a;stop-opacity:0.40072206;"
         offset="0"
         id="stop1018" /><stop
         style="stop-color:#191919;stop-opacity:0.60288811;"
         offset="0.28671324"
         id="stop1754" /><stop
         style="stop-color:#080808;stop-opacity:0.17689532;"
         offset="0.72960377"
         id="stop1756" /><stop
         style="stop-color:#040404;stop-opacity:0.09747293;"
         offset="0.82983679"
         id="stop1758" /><stop
         style="stop-color:#000000;stop-opacity:0;"
         offset="1"
         id="stop1020" /></linearGradient><radialGradient
       inkscape:collect="always"
       xlink:href="#linearGradient1022"
       id="radialGradient1024"
       cx="-874.16357"
       cy="-506.24841"
       fx="-874.16357"
       fy="-506.24841"
       r="294.48245"
       gradientTransform="matrix(1,0,0,0.30665103,634,-111.82347)"
       gradientUnits="userSpaceOnUse" /><radialGradient
       inkscape:collect="always"
       xlink:href="#linearGradient9601"
       id="radialGradient9605"
       cx="-225.1776"
       cy="129.31891"
       fx="-225.1776"
       fy="129.31891"
       r="900"
       gradientTransform="matrix(1,0,0,0.53333334,0,60.348824)"
       gradientUnits="userSpaceOnUse" /><filter
       style="color-interpolation-filters:sRGB;"
       inkscape:label="Blur"
       id="filter11115"
       x="-0.098130138"
       y="-0.17812958"
       width="1.1962603"
       height="1.3562592"><feGaussianBlur
         stdDeviation="36.7988 35.8555"
         result="fbSourceGraphic"
         id="feGaussianBlur11113" /><feColorMatrix
         result="fbSourceGraphicAlpha"
         in="fbSourceGraphic"
         values="0 0 0 -1 0 0 0 0 -1 0 0 0 0 -1 0 0 0 0 1 0"
         id="feColorMatrix11117" /><feGaussianBlur
         id="feGaussianBlur11119"
         stdDeviation="36.7988 35.8555"
         result="blur"
         in="fbSourceGraphic" /></filter></defs><g
     inkscape:label="background"
     inkscape:groupmode="layer"
     id="layer1"
     transform="translate(1185.1776,410.68108)"
     style="display:inline"><path
       id="path20038"
       style="display:inline;opacity:1;fill:#ffffff;fill-opacity:0.121569;stroke-width:0.983286;stroke-opacity:0"
       d="m -1513.3511,-1047.0538 c -0.1393,1.6892 -0.417,3.364 -0.8301,5.0078 127.4369,14.2898 227.9308,115.03046 241.9082,242.50197 1.6418,-0.43685 3.3167,-0.73799 5.0078,-0.90039 -14.3748,-129.58357 -116.5332,-231.95918 -246.0859,-246.60938 z m -61.5859,0.5332 c -129.3884,14.5563 -231.5303,116.62768 -246.1759,246.00586 1.6905,0.17094 3.3641,0.48057 5.0039,0.92578 14.2449,-127.30255 114.7665,-227.76014 242.0782,-241.92384 -0.4388,-1.6416 -0.7419,-3.3165 -0.9062,-5.0078 z m -241.0724,306.72071 c -1.641,0.43872 -3.3153,0.74182 -5.0059,0.90625 14.5596,129.41184 116.6651,231.56353 246.0704,246.18164 0.1598,-1.69156 0.4583,-3.36713 0.8926,-5.00977 -127.3156,-14.2304 -227.7904,-114.75552 -241.9571,-242.07812 z m 543.6896,0 c -14.1644,127.31021 -114.6208,227.83063 -241.9219,242.07617 0.4805,1.77909 0.8014,3.59749 0.959,5.43359 129.5228,-14.67904 231.6446,-117.04242 246.0175,-246.59961 -1.7071,-0.16305 -3.3978,-0.46747 -5.0546,-0.91015 z"
       inkscape:label="ring inner"
       sodipodi:nodetypes="cccccccccccccccccccc" /><path
       id="path20008"
       style="display:inline;opacity:1;fill:#ffffff;fill-opacity:0.121569;stroke-width:1.00757;stroke-opacity:0"
       d="m -1513.4722,-1054.0128 c 0.204,1.435 0.3071,2.8826 0.3086,4.332 -0.017,0.3109 -0.04,0.6215 -0.066,0.9317 130.3918,14.7162 233.2147,117.7604 247.6504,248.18358 0.4757,-0.0449 0.9524,-0.0787 1.4297,-0.10156 1.2622,0.003 2.523,0.0834 3.7754,0.24023 -14.4266,-133.43819 -119.6875,-238.90215 -253.0977,-253.58595 z m -61.4238,0.6016 c -133.2313,14.6231 -238.4446,119.79417 -253.1212,253.01951 1.273,-0.17126 2.5554,-0.26323 3.8398,-0.27539 0.4585,9e-4 0.917,0.012 1.375,0.0332 14.7095,-130.21684 117.5173,-232.95412 247.7443,-247.57422 -0.047,-0.49 -0.082,-0.981 -0.1055,-1.4727 0.014,-1.2477 0.1034,-2.4935 0.2676,-3.7304 z m 314.5234,314.47264 c -1.2524,0.16739 -2.5139,0.25805 -3.7773,0.27148 -0.4923,-0.0234 -0.984,-0.0586 -1.4746,-0.10547 -14.6208,130.22548 -117.3569,233.03206 -247.5723,247.74219 0.021,0.45868 0.032,0.91778 0.033,1.37695 0,1.44949 -0.1059,2.89706 -0.3106,4.33203 133.4221,-14.68481 238.6884,-120.16551 253.1016,-253.61718 z m -567.5352,0.004 c 14.624,133.23045 119.7948,238.44269 253.0196,253.11914 -0.1712,-1.27236 -0.2632,-2.55413 -0.2754,-3.83789 0.022,-0.45835 0.055,-0.91615 0.098,-1.37305 -130.242,-14.68244 -233.0119,-117.49778 -247.6369,-247.74609 -0.4906,0.0469 -0.9823,0.082 -1.4746,0.10547 -1.2477,-0.014 -2.4935,-0.10339 -3.7304,-0.26758 z"
       inkscape:label="ring outer"
       sodipodi:nodetypes="ccccccccccccccccccccccccccccc" /><path
       id="path20315"
       style="display:inline;opacity:1;fill:#000000;fill-opacity:0.541176;stroke-width:0.492432;stroke-opacity:0"
       d="m -1544.1636,-992.16708 c -122.8834,0 -222.5001,99.61664 -222.5001,222.5 0,122.88336 99.6167,222.5 222.5001,222.5 122.8834,0 222.5,-99.61664 222.5,-222.5 0,-122.88336 -99.6166,-222.5 -222.5,-222.5 z m 0,24.5 c 109.3524,0 198,88.64762 198,198 0,109.35238 -88.6476,198 -198,198 -109.3524,0 -198.0001,-88.64762 -198.0001,-198 0,-109.35238 88.6477,-198 198.0001,-198 z"
       inkscape:label="05"
       sodipodi:nodetypes="cccccccccc" /><path
       id="path20308"
       style="display:inline;opacity:1;fill:#ffffff;fill-opacity:0.2;stroke-width:0.592555;stroke-opacity:0"
       d="m -1544.1636,-1013.4171 c -134.6195,0 -243.7501,109.13061 -243.7501,243.75002 0,134.61941 109.1306,243.75 243.7501,243.75 134.6194,0 243.75,-109.13059 243.75,-243.75 0,-134.61941 -109.1306,-243.75002 -243.75,-243.75002 z m 0,21.25002 c 122.8833,-10e-6 222.5,99.61664 222.5,222.5 0,122.88336 -99.6167,222.50001 -222.5,222.5 -122.8834,1e-5 -222.5001,-99.61664 -222.5001,-222.5 0,-122.88336 99.6167,-222.50001 222.5001,-222.5 z"
       inkscape:label="04"
       sodipodi:nodetypes="cccccccccc" /><path
       id="path20095"
       style="display:inline;opacity:1;fill:#000000;fill-opacity:1;stroke-width:0.86883;stroke-opacity:0"
       d="m -1544.1636,-1010.8231 c -133.187,-1e-4 -241.1562,107.96932 -241.1561,241.15627 -10e-5,133.18695 107.9691,241.15635 241.1561,241.15625 133.1868,1.3e-4 241.1561,-107.96928 241.156,-241.15625 10e-5,-133.18697 -107.9692,-241.15637 -241.156,-241.15627 z m 0,15.88088 c 124.4155,5.2e-4 225.2738,100.85976 225.2732,225.27539 -5e-4,124.41487 -100.8585,225.27292 -225.2732,225.27344 -124.4155,5e-4 -225.2747,-100.85785 -225.2752,-225.27344 -6e-4,-124.41635 100.8589,-225.27589 225.2752,-225.27539 z"
       inkscape:label="03"
       sodipodi:nodetypes="cccccccccc" /><path
       id="path20089"
       style="display:none;opacity:1;fill:#828282;fill-opacity:1;stroke-width:0.524204;stroke-opacity:0"
       d="m -1544.1641,-1009.4841 c -132.4471,10e-5 -239.8166,107.36952 -239.8166,239.81643 10e-5,132.4469 107.3695,239.81632 239.8166,239.8164 132.447,-6e-5 239.8164,-107.36948 239.8165,-239.8164 -10e-5,-132.44692 -107.3695,-239.81633 -239.8165,-239.81643 z m 0,13.09572 c 125.2143,2.7e-4 226.7205,101.50643 226.7208,226.72071 -3e-4,125.21427 -101.5065,226.72043 -226.7208,226.7207 -125.2143,-2.9e-4 -226.7206,-101.50644 -226.7209,-226.7207 3e-4,-125.21427 101.5065,-226.72042 226.7209,-226.72071 z"
       inkscape:label="02"
       sodipodi:nodetypes="cccccccccc" /><path
       id="path20084"
       style="display:inline;opacity:1;fill:#ffffff;fill-opacity:0.121569;stroke-width:0.660872;stroke-opacity:0"
       d="m -1544.1636,-930.66708 c -88.9178,0 -161.0001,72.08216 -161.0001,161 0,88.91784 72.0823,161 161.0001,161 88.9178,0 161,-72.08216 161,-161 0,-88.91784 -72.0822,-161 -161,-161 z m 0,4.91797 c 86.2019,-4.3e-4 156.0825,69.88013 156.082,156.08203 5e-4,86.2019 -69.8801,156.08246 -156.082,156.08203 -86.2019,4.1e-4 -156.0825,-69.88014 -156.0821,-156.08203 -4e-4,-86.20189 69.8802,-156.08244 156.0821,-156.08203 z"
       inkscape:label="01"
       sodipodi:nodetypes="cccccccccc" /><path
       id="rect2966"
       style="display:inline;opacity:1;fill:url(#radialGradient9605);fill-opacity:1;stroke:none;stroke-width:0.996983;stroke-opacity:0;filter:url(#filter11115)"
       d="M -1125.1776,-356.86761 H 674.82239 V 609.31891 H -1125.1776 Z"
       sodipodi:nodetypes="ccccc" /><path
       id="rect437"
       style="display:inline;opacity:1;fill:url(#radialGradient1024);stroke-width:1.002;stroke-opacity:0"
       d="M -534.14526,-356.86761 H 53.818054 V -177.2625 H -534.14526 Z" /></g><g
     inkscape:groupmode="layer"
     id="layer4"
     inkscape:label="pin"
     style="display:inline"
     transform="translate(622.028,311.01375)"><path
       id="path11909"
       style="display:inline;opacity:1;fill:#000000;fill-opacity:1;stroke-width:1.05498;stroke-opacity:0"
       d="m -964.014,-902.99975 c 0,9.38884 -7.61116,17 -17,17 -9.38884,0 -17,-7.61116 -17,-17 0,-9.38884 7.61116,-17 17,-17 9.38884,0 17,7.61116 17,17 z"
       inkscape:label="02"
       sodipodi:nodetypes="ccccc" /><path
       id="path19929"
       style="opacity:1;fill:#ffffff;fill-opacity:1;stroke-width:0.988209;stroke-opacity:0"
       d="m -981.014,-917.99975 c -8.28427,0 -15,6.71573 -15,15 0,8.28427 6.71573,15 15,15 8.28427,0 15,-6.71573 15,-15 0,-8.28427 -6.71573,-15 -15,-15 z m 0,3.65039 c 6.26835,-3.3e-4 11.34994,5.08126 11.34961,11.34961 3.3e-4,6.26835 -5.08126,11.34994 -11.34961,11.34961 -6.26759,-7.4e-4 -11.34799,-5.08202 -11.34766,-11.34961 -3.3e-4,-6.26759 5.08007,-11.34887 11.34766,-11.34961 z m 0,2.4375 c -4.9214,7.5e-4 -8.91049,3.99071 -8.91016,8.91211 -3.3e-4,4.9214 3.98876,8.91136 8.91016,8.91211 4.92216,3.3e-4 8.91244,-3.98995 8.91211,-8.91211 3.3e-4,-4.92216 -3.98995,-8.91244 -8.91211,-8.91211 z"
       inkscape:label="01"
       sodipodi:nodetypes="ccccccccccccccc" /></g><g
     inkscape:groupmode="layer"
     id="layer3"
     inkscape:label="Time"
     style="display:inline"
     transform="translate(622.028,311.01375)"><g
       inkscape:groupmode="layer"
       id="layer6"
       inkscape:label="background inner"
       style="display:inline"><path
         style="display:inline;fill:#000000;fill-opacity:0.501961;stroke-width:1.02573;stroke-opacity:0"
         d="m -981.014,-417.48608 c -15.18783,0 -27.5,12.31217 -27.5,27.5 0,15.18783 12.31217,27.5 27.5,27.5 15.18783,0 27.5,-12.31217 27.5,-27.5 0,-15.18783 -12.31217,-27.5 -27.5,-27.5 z"
         id="path17163"
         inkscape:label="night"
         sodipodi:nodetypes="ccccc" /><path
         style="display:inline;fill:#000000;fill-opacity:0.501961;stroke-width:1.02573;stroke-opacity:0"
         d="m -701.00034,-697.49975 c -15.18783,0 -27.5,12.31217 -27.5,27.5 0,15.18783 12.31217,27.5 27.5,27.5 15.18783,0 27.5,-12.31217 27.5,-27.5 0,-15.18783 -12.31217,-27.5 -27.5,-27.5 z"
         id="path17161"
         inkscape:label="dusk"
         sodipodi:nodetypes="ccccc" /><path
         style="display:inline;fill:#000000;fill-opacity:0.501961;stroke-width:1.02573;stroke-opacity:0"
         d="m -981.014,-977.51342 c -15.18783,0 -27.5,12.31217 -27.5,27.5 0,15.18783 12.31217,27.5 27.5,27.5 15.18783,0 27.5,-12.31217 27.5,-27.5 0,-15.18783 -12.31217,-27.5 -27.5,-27.5 z"
         id="circle15550-4"
         inkscape:label="day"
         sodipodi:nodetypes="ccccc" /><path
         style="display:inline;fill:#000000;fill-opacity:0.501961;stroke-width:1.02573;stroke-opacity:0"
         d="m -1261.0277,-697.49975 c -15.1878,0 -27.5,12.31217 -27.5,27.5 0,15.18783 12.3122,27.5 27.5,27.5 15.1879,0 27.5,-12.31217 27.5,-27.5 0,-15.18783 -12.3121,-27.5 -27.5,-27.5 z"
         id="path17159"
         inkscape:label="dawn"
         sodipodi:nodetypes="ccccc" /></g><g
       inkscape:groupmode="layer"
       id="layer5"
       inkscape:label="background outer"><path
         id="path19036-1"
         style="display:inline;fill:#ffffff;fill-opacity:0.121569;stroke-width:1.02115;stroke-opacity:0"
         d="m -981.014,-420.98575 c -17.12083,0 -31,13.87917 -31,31 0,17.12083 13.87917,31 31,31 17.12083,0 31,-13.87917 31,-31 0,-17.12083 -13.87917,-31 -31,-31 z m 0,3.5 c 15.18781,0 27.5,12.31219 27.5,27.5 0,15.18783 -12.31219,27.5 -27.5,27.5 -15.18782,0 -27.5,-12.31217 -27.5,-27.5 0,-15.18781 12.31218,-27.5 27.5,-27.5 z"
         inkscape:label="night"
         sodipodi:nodetypes="cccccccccc" /><path
         id="path19036-4"
         style="display:inline;fill:#ffffff;fill-opacity:0.121569;stroke-width:1.02115;stroke-opacity:0"
         d="m -701,-700.99975 c -17.12082,0 -31,13.87917 -31,31 0,17.12083 13.87918,31 31,31 17.12083,0 31,-13.87917 31,-31 0,-17.12083 -13.87917,-31 -31,-31 z m 0,3.5 c 15.18781,0 27.5,12.31219 27.5,27.5 0,15.18783 -12.31219,27.5 -27.5,27.5 -15.18782,0 -27.49999,-12.31217 -27.5,-27.5 10e-6,-15.18781 12.31218,-27.5 27.5,-27.5 z"
         inkscape:label="dusk"
         sodipodi:nodetypes="cccccccccc" /><path
         id="path19036"
         style="display:inline;opacity:1;fill:#ffffff;fill-opacity:0.121569;stroke-width:1.02115;stroke-opacity:0"
         d="m -981.014,-981.01375 c -17.12083,0 -31,13.87917 -31,31 0,17.12083 13.87917,31 31,31 17.12083,0 31,-13.87917 31,-31 0,-17.12083 -13.87917,-31 -31,-31 z m 0,3.5 c 15.18781,0 27.5,12.31219 27.5,27.5 0,15.18783 -12.31219,27.5 -27.5,27.5 -15.18782,0 -27.5,-12.31217 -27.5,-27.5 0,-15.18781 12.31218,-27.5 27.5,-27.5 z"
         inkscape:label="day"
         sodipodi:nodetypes="cccccccccc" /><path
         id="path19036-8"
         style="display:inline;fill:#ffffff;fill-opacity:0.121569;stroke-width:1.02115;stroke-opacity:0"
         d="m -1261.028,-700.99975 c -17.1208,0 -31,13.87917 -31,31 0,17.12083 13.8792,31 31,31 17.1208,0 31,-13.87917 31,-31 0,-17.12083 -13.8792,-31 -31,-31 z m 0,3.5 c 15.1878,0 27.5,12.31219 27.5,27.5 0,15.18783 -12.3122,27.5 -27.5,27.5 -15.1878,0 -27.5,-12.31217 -27.5,-27.5 0,-15.18781 12.3122,-27.5 27.5,-27.5 z"
         inkscape:label="dawn"
         sodipodi:nodetypes="cccccccccc" /></g><path
       id="path18955"
       style="opacity:1;fill:#ffffff;fill-opacity:1;stroke-width:1.00157;stroke-opacity:0"
       d="m -979.9655,-405.26375 c -8.28427,0 -15,6.71573 -15,15 0,8.28427 6.71573,15 15,15 4.97387,-0.008 9.62009,-2.48191 12.40429,-6.60352 -7.48498,1.86036 -14.48419,-1.07268 -16.56445,-6.9414 -1.93314,-5.53524 1.0286,-12.19333 7.18164,-16.14453 -0.99406,-0.20549 -2.00641,-0.30954 -3.02148,-0.31055 z"
       inkscape:label="night"
       sodipodi:nodetypes="ccccccc" /><path
       id="path2856"
       style="display:inline;fill:#ffffff;fill-opacity:1;stroke-width:0.967479;stroke-opacity:0"
       d="m -700.36662,-680.09931 c -5.48298,0 -9.93405,4.41307 -9.99805,9.88086 h 19.99414 c -0.064,-5.46777 -4.51317,-9.88086 -9.99609,-9.88086 z m -14.15821,11.80274 v 2.00976 h 29.00196 v -2.00976 z m 0,2.98828 v 2.00977 h 29.00196 v -2.00977 z"
       inkscape:label="dusk"
       sodipodi:nodetypes="cccccccccccccc" /><path
       id="path477"
       style="display:inline;opacity:1;fill:#ffffff;fill-opacity:1;stroke-width:0.967481;stroke-opacity:0"
       d="m -980.49252,-973.37028 -3.98829,11.62307 8.10354,-0.0293 z m -15.55057,8.5182 4.63356,8.83835 4.71065,-4.7492 z m 30.45366,1.15876 -8.51439,3.05157 4.20305,4.6041 z m -14.90309,3.19415 c -5.52287,0 -10.00004,4.47715 -10.00004,10 0,5.52286 4.47717,10.00001 10.00004,10.00001 5.52288,0 10.00005,-4.47715 10.00005,-10.00001 0,-5.52285 -4.47717,-10 -10.00005,-10 z m -11.54758,6.8789 -12.3744,3.1211 12.3744,4.04088 z m 23.28396,0 0.13258,7.29456 11.01006,-4.01721 z m -21.73578,9.76082 -4.26133,7.65756 8.49714,-3.55944 z m 20.39138,0.0325 -4.22226,3.64105 8.06079,4.75032 z m -7.29468,5.10417 -6.20321,0.0221 3.10591,11.50039 z"
       sodipodi:nodetypes="ccccccccccccccccccccccccccccccccccccc"
       inkscape:label="day" /><path
       id="path3625"
       style="display:inline;fill:#ffffff;fill-opacity:1;stroke-width:0.967479;stroke-opacity:0"
       d="m -1260.7123,-692.58748 -4.1387,12.69334 8.1035,-0.0293 z m -17.2517,7.21456 6.3056,11.10475 5.218,-5.00012 z m 34.5681,0.42605 -11.8145,5.87109 5.0723,5.00196 z m -17.2754,6.31836 c -5.483,0 -9.934,4.41306 -9.998,9.88086 h 19.9941 c -0.064,-5.46778 -4.5132,-9.88086 -9.9961,-9.88086 z m -11.7812,6.49023 -12.8829,3.41602 h 12.8829 z m 23.2968,-0.15625 0.031,3.57227 h 12.8848 z m -30.2871,5.56638 v 1.01758 h 36.9922 v -1.01755 z m 4.9922,3.01563 v 1.99414 h 27 v -1.99414 z m 6,4 v 1 h 15.0039 v -1 z"
       inkscape:label="dawn"
       sodipodi:nodetypes="ccccccccccccccccccccccccccccccccccccccc" /></g><g
     inkscape:groupmode="layer"
     id="layer2"
     inkscape:label="Weather"
     style="display:inline"
     transform="translate(622.028,311.01375)"><path
       id="path5436"
       style="display:inline;opacity:1;fill:#ffffff;fill-opacity:1;stroke-width:1.0151;stroke-opacity:0"
       d="m -983.79527,-617.7637 c -8.83663,0 -16.00013,7.16344 -16.00013,16 0.0127,1.03521 0.12588,2.06674 0.33789,3.08008 -0.21661,-0.0115 -0.43348,-0.0174 -0.65039,-0.0176 -6.9036,0 -12.5001,5.59644 -12.5001,12.5 0.01,3.49465 1.4783,6.82643 4.0547,9.1875 h 16.89077 18.30679 1.12697 16.74427 c 3.80142,-2.81929 6.04931,-7.26727 6.0645,-12 0,-8.28427 -6.71578,-15 -15.00012,-15 -1.17359,0.0118 -2.34175,0.16122 -3.4805,0.44531 -0.9178,-8.08505 -7.75761,-14.1936 -15.89465,-14.19531 z"
       inkscape:label="Cloudy"
       sodipodi:nodetypes="ccccccccccccccc" /><path
       id="path9482"
       style="display:inline;opacity:1;fill:#ffffff;fill-opacity:1;stroke-width:1.00157;stroke-opacity:0"
       d="m -987.04549,-617.61222 -18.00001,16.87705 c -0.3011,0.27163 -0.5783,0.56984 -0.8281,0.89062 -2.1724,2.85537 -1.7763,6.81128 0.8847,8.836 2.6606,2.02503 6.57885,1.35261 8.75199,-1.50197 0.55649,-0.73174 0.96191,-1.56521 1.18945,-2.44532 l 1.46681,-4.19339 6.15039,-15.98446 c 0.45312,-1.51564 0.38477,-2.47853 0.38477,-2.47853 z m 32.29299,2.5879 -10.5254,14.76376 c -0.17072,0.23753 -0.32045,0.49141 -0.44726,0.75586 -1.09266,2.34617 -0.20603,5.07341 1.98046,6.09184 2.18626,1.01872 4.84612,-0.0566 5.93946,-2.40236 0.27987,-0.60122 0.43767,-1.25098 0.4629,-1.90626 l 0.38866,-3.18166 1.87501,-12.34188 z m -18.36525,7.44536 -14.01759,20.38878 c -0.23634,0.32953 -0.44334,0.68031 -0.61913,1.04689 -1.51471,3.25238 -0.28496,7.03355 2.74609,8.44536 3.0307,1.41222 6.71483,-0.0803 8.23048,-3.33205 0.38795,-0.83344 0.60761,-1.73421 0.64258,-2.6426 l 0.53905,-4.40822 c 0,0 2.42307,-12.73486 2.73243,-17.08799 0.0221,-2.45278 -0.25391,-2.41017 -0.25391,-2.41017 z"
       inkscape:label="Rain"
       sodipodi:nodetypes="ccccccccccccccccccccccccccc" /><path
       id="path9532"
       style="display:inline;opacity:1;fill:#ffffff;fill-opacity:1;stroke-width:1.00155;stroke-opacity:0"
       d="m -976.96224,-624.38872 -2.15976,1.04412 -3.97163,0.01 -1.8744,-1.03437 0.92254,7.12152 0.14161,13.08843 -8.9429,-9.93264 -4.34103,-5.74366 -0.78572,2.26195 -2.80087,2.8123 -2.0581,0.5933 5.69747,4.38141 9.58417,9.52521 -13.32904,-0.10857 -7.1341,-1.01484 1.0398,2.1585 v 3.96572 l -1.0398,1.86967 7.1341,-0.90556 13.12898,-0.24556 -9.21407,8.61221 -5.79911,4.27212 2.2575,0.80994 2.7852,2.82792 0.57073,2.06092 4.45048,-5.64022 8.69122,-8.93982 -0.13816,13.01679 -0.95186,7.13322 2.15195,-1.0578 3.97162,-0.0371 1.88222,1.02265 -0.9714,-7.11565 0.13525,-13.21218 8.77158,9.04934 4.2824,5.7866 0.80918,-2.25414 2.83016,-2.78304 2.064,-0.57378 -5.65252,-4.43801 -8.90746,-8.58524 12.57417,0.2986 7.14384,0.94459 -1.06132,-2.1468 -0.0371,-3.96572 1.02027,-1.87941 -7.1243,0.97385 -13.21291,0.016 9.92342,-9.44821 5.83821,-4.21748 -2.24968,-0.83139 -2.75981,-2.85134 -0.55118,-2.06679 -4.50325,5.59925 -9.19845,9.88376 -0.0328,-12.98296 z"
       sodipodi:nodetypes="ccccccccccccccccccccccccccccccccccccccccccccccccccccccccc"
       inkscape:label="Snow" /><path
       id="path477-1"
       style="display:inline;fill:#ffffff;fill-opacity:1;stroke-width:1.5928;stroke-opacity:0"
       d="m -980.20622,-619.26572 -5.25392,16.25968 10.02933,-0.0488 z m 27.73067,9.40654 -16.08989,8.72651 7.29103,7.41793 z m -56.92205,0.76171 9.4844,15.95109 6.77737,-6.8652 z m 28.87704,12.63665 c -9.09249,0 -16.46294,7.37038 -16.46294,16.46279 0,1.55716 0.23078,3.05853 0.63476,4.48631 h 31.65635 c 0.40399,-1.42778 0.63477,-2.92915 0.63477,-4.48631 0,-9.09241 -7.37046,-16.46279 -16.46294,-16.46279 z m -22.18784,9.83619 -16.5586,4.63864 16.4961,5.02732 z m 43.66605,-0.53033 -0.0312,9.63471 16.31255,-4.80075 z"
       inkscape:label="Sunny"
       sodipodi:nodetypes="cccccccccccccccccccccccccc" /></g></svg>
