<?xml version="1.0" encoding="UTF-8" standalone="no"?>
<!-- Created with Inkscape (http://www.inkscape.org/) -->

<svg
   width="210mm"
   height="297mm"
   viewBox="0 0 210 297"
   version="1.1"
   id="svg11418"
   xml:space="preserve"
   inkscape:version="1.2.2 (732a01da63, 2022-12-09)"
   sodipodi:docname="Mouse.svg"
   xmlns:inkscape="http://www.inkscape.org/namespaces/inkscape"
   xmlns:sodipodi="http://sodipodi.sourceforge.net/DTD/sodipodi-0.dtd"
   xmlns="http://www.w3.org/2000/svg"
   xmlns:svg="http://www.w3.org/2000/svg"><sodipodi:namedview
     id="namedview11420"
     pagecolor="#505050"
     bordercolor="#eeeeee"
     borderopacity="1"
     inkscape:showpageshadow="0"
     inkscape:pageopacity="0"
     inkscape:pagecheckerboard="0"
     inkscape:deskcolor="#505050"
     inkscape:document-units="mm"
     showgrid="false"
     inkscape:zoom="3.0431538"
     inkscape:cx="383.48375"
     inkscape:cy="497.8388"
     inkscape:window-width="1920"
     inkscape:window-height="1009"
     inkscape:window-x="1912"
     inkscape:window-y="-4"
     inkscape:window-maximized="1"
     inkscape:current-layer="layer1" /><defs
     id="defs11415" /><g
     inkscape:label="Layer 1"
     inkscape:groupmode="layer"
     id="layer1"><path
       id="path12369"
       style="opacity:1;fill:#000000;fill-opacity:1;stroke-width:0.265112;stroke-opacity:0"
       d="m 92.617602,125.26781 c -0.63784,0 -1.053113,0.13059 -1.583365,0.29197 -0.8607,0.33045 -1.430213,1.12518 -1.56854,1.5171 -0.122957,0.36888 -0.198661,0.63717 -0.183291,0.92151 0.0077,0.63784 0.130207,1.80603 0.306958,2.2748 0.176751,0.4073 0.507278,0.85307 0.783931,1.19889 0.169066,0.19212 2.70186,2.75219 3.358912,3.32855 0.806906,0.74927 2.700672,2.59264 3.326985,3.11137 0.82996,0.66858 2.766756,2.28978 2.766756,2.28978 0,0 0.426582,1.51017 0.307472,2.87807 0,0.45351 -0.749372,0.7288 -1.11449,0.2648 -0.231271,-0.30938 0,-2.35104 -0.33038,-2.93509 -1.014396,-1.84435 -1.237482,-1.80613 -1.813843,-1.80613 -1.813326,-0.0615 -2.005529,0.79136 -2.120801,1.29087 -0.215175,1.50622 -0.11519,5.50999 0.307475,6.6704 0.514883,1.27568 1.175437,1.71391 1.628841,2.16731 1.437061,1.24494 2.221033,1.40641 2.874243,1.79834 1.314105,0.65321 2.951245,0.9219 2.951245,0.9219 0.7608,0.12296 1.52348,-0.36115 2.48408,0.12299 0.58404,0.32276 1.61934,1.68334 2.31097,2.30581 0.6071,0.56868 1.37558,1.06008 1.90583,1.32136 0.99903,0.59942 2.08289,0.58424 2.59777,0.19999 0.83765,-0.46877 3.46567,-2.13646 4.14962,-2.75125 0.88375,-0.68395 3.11984,-2.47467 3.61167,-2.99724 0.54562,-0.49951 1.12189,-0.9219 1.12189,-1.50585 0.0538,-0.79922 0.0308,-2.17497 -0.29197,-2.58227 -0.67626,-0.92986 -1.65217,-0.96069 -2.67425,-1.79834 -0.69163,-0.84533 -1.92118,-3.35798 -2.32079,-4.2571 -0.44572,-1.06819 -1.35245,-3.47372 -1.59836,-4.07314 -0.20749,-0.53794 0,-0.89285 -0.52244,-1.41387 -1.95963,-1.86741 -2.66684,-2.35942 -3.18172,-2.64376 -0.92986,-0.39193 -1.26802,-0.37643 -2.02882,-0.46096 -1.33716,-0.10759 -2.80504,0.28418 -4.18062,-0.13849 -0.46877,-0.43803 -0.86028,-0.43035 -1.32137,-0.47646 -0.74543,-0.0384 -1.34534,0.0998 -1.84485,0.10749 -0.745427,0.0231 -1.667361,0.0615 -1.997808,-0.12299 -0.683949,-0.69932 -3.627431,-3.7909 -4.611088,-4.49791 -0.522568,-0.39961 -1.113926,-0.49939 -1.505852,-0.52245 z m -0.35605,1.55701 12.070578,10.2712 1.125,-0.18345 -4.57802,-4.63641 2.48461,-0.20929 5.8477,4.79144 v -1.20612 l -3.09077,-2.63085 2.66754,-0.51883 3.47317,2.81688 3.17035,8.91625 3.42408,3.41271 -4.05763,3.15071 -4.29586,-3.68091 -3.19671,-0.0305 -3.16621,-5.62549 -1.81384,-3.13521 -9.559626,-7.86929 -1.460376,-1.33739 0.03462,-1.28726 z"
       sodipodi:nodetypes="ccccccccccccccccccccccccccccccccccccccccccccccccccccccccccc" /><path
       style="opacity:1;fill:#ffffff;fill-opacity:0.490196;stroke-width:0.265112;stroke-opacity:0"
       d="m 92.261527,126.82465 -0.921294,1.00846 -0.03458,1.28721 1.460115,1.33715 9.559916,7.86926 1.81361,3.13541 3.16615,5.62528 3.19689,0.0307 4.29581,3.68103 4.05759,-3.15077 -3.42424,-3.41261 -3.16988,-8.91658 -3.47355,-2.81682 -2.66717,0.51884 3.09038,2.63116 v 1.20597 l -5.84759,-4.79159 -2.48461,0.20958 4.57828,4.63635 -1.12517,0.18309 z"
       id="path12720"
       sodipodi:nodetypes="ccccccccccccccccccccc" /></g></svg>
